<?xml version="1.0" encoding="utf-8"?>
<!-- Generator: Adobe Illustrator 16.0.0, SVG Export Plug-In . SVG Version: 6.00 Build 0)  -->
<!DOCTYPE svg PUBLIC "-//W3C//DTD SVG 1.1//EN" "http://www.w3.org/Graphics/SVG/1.1/DTD/svg11.dtd">
<svg version="1.1" id="Layer_1" xmlns="http://www.w3.org/2000/svg" xmlns:xlink="http://www.w3.org/1999/xlink" x="0px" y="0px"
	 width="870.3px" height="215.9px" viewBox="0 0 870.3 215.9" enable-background="new 0 0 870.3 215.9" xml:space="preserve">
<g>
	<path fill-rule="evenodd" clip-rule="evenodd" fill="#FFFFFF" d="M213.8,215.9c7.1-9.3,13.2-19.2,18.4-29.8
		c5.2-10.7,9.1-21.6,11.8-33L261,56.3h-29.2c-0.5,3.1-1.2,7.1-2,12.1l-2.6,16.2c-1,5.8-2,11.7-3,17.8l-3,16.8l-2.4,13.3l-1.2,7
		c-1.4,8-2.9,15.2-4.5,21.7c-1.6,6.5-3.3,12.6-5.3,18.2c-2,5.6-4.1,11-6.4,16.2c-2.3,5.2-5,10.4-8,15.8L213.8,215.9z M262.9,33.4
		c3.1-2.7,5.1-6.7,6-12c1-5.5,0.4-9.5-1.7-12.2c-2.1-2.6-6.1-4-12-4c-5.9,0-10.4,1.3-13.4,3.9c-3,2.6-5.1,6.7-6,12.3
		c-1,5.6-0.4,9.7,1.7,12.2c2.1,2.5,6.2,3.8,12.1,3.8C255.3,37.4,259.8,36.1,262.9,33.4z"/>
	<path fill-rule="evenodd" clip-rule="evenodd" fill="#FFFFFF" d="M297.4,136.1c1-5.6,3.3-9.7,7.1-12.2c3.7-2.5,9.9-4.1,18.4-4.8
		l18.1-1.7l-4.1,23.3c-4.3,2.7-8.9,4.9-13.8,6.7s-9.5,2.7-13.7,2.7C299.7,150.2,295.7,145.5,297.4,136.1z M335.1,155.6h1.7l0.3,14.1
		H361l13.5-76.9c2.3-13,0-22.6-7-28.8c-7-6.1-18.9-9.3-35.9-9.3c-12.5,0-26.8,1.4-42.9,4.2l-1.8,20.8c6.5-1.3,12.9-2.2,19.2-2.8
		c6.3-0.6,11.9-1,16.8-1c5.2,0,9.3,0.4,12.5,1.1c3.2,0.7,5.5,1.9,7.1,3.6c1.6,1.7,2.5,3.9,2.7,6.6c0.2,2.7,0,6.2-0.8,10.4l-0.7,3.8
		l-27,1.9c-15,1.1-26.5,4.6-34.5,10.4c-8,5.8-12.9,14.3-14.9,25.5c-1.8,10.1-0.5,17.9,4,23.3c4.4,5.5,11.9,8.2,22.4,8.2
		C307.4,170.7,321.1,165.7,335.1,155.6z"/>
	<polygon fill-rule="evenodd" clip-rule="evenodd" fill="#FFFFFF" points="418.7,169.7 454.8,169.7 516.9,59.4 517.5,56.3 487,56.3 
		452,123.9 442.4,146.4 440,146.4 438.3,123.9 427.8,56.3 396.7,56.3 396.1,59.4 	"/>
	<path fill-rule="evenodd" clip-rule="evenodd" fill="#FFFFFF" d="M542.2,136.1c1-5.6,3.3-9.7,7.1-12.2c3.7-2.5,9.9-4.1,18.4-4.8
		l18.1-1.7l-4.1,23.3c-4.3,2.7-8.9,4.9-13.8,6.7s-9.5,2.7-13.7,2.7C544.6,150.2,540.6,145.5,542.2,136.1z M580,155.6h1.7l0.3,14.1
		h23.9l13.5-76.9c2.3-13,0-22.6-7-28.8c-7-6.1-18.9-9.3-35.9-9.3c-12.5,0-26.8,1.4-42.9,4.2l-1.8,20.8c6.5-1.3,12.9-2.2,19.2-2.8
		c6.3-0.6,11.9-1,16.8-1c5.2,0,9.3,0.4,12.5,1.1c3.2,0.7,5.5,1.9,7.1,3.6c1.6,1.7,2.5,3.9,2.7,6.6c0.2,2.7,0,6.2-0.8,10.4l-0.7,3.8
		l-27,1.9c-15,1.1-26.5,4.6-34.5,10.4c-8,5.8-12.9,14.3-14.9,25.5c-1.8,10.1-0.5,17.9,4,23.3c4.4,5.5,11.9,8.2,22.4,8.2
		C552.2,170.7,566,165.7,580,155.6z"/>
	<polygon fill-rule="evenodd" clip-rule="evenodd" fill="#FFFFFF" points="633.1,169.7 662.3,169.7 692.2,0 663,0 	"/>
	<path fill-rule="evenodd" clip-rule="evenodd" fill="#FFFFFF" d="M690.4,169.7h29.2l20-113.4h-29.2L690.4,169.7z M741.9,33.4
		c3.1-2.7,5.1-6.7,6-12c1-5.5,0.3-9.5-1.8-12.2c-2.2-2.6-6.2-4-12.1-4c-5.9,0-10.3,1.3-13.3,3.9c-3,2.6-5,6.7-5.9,12.3
		c-1,5.6-0.5,9.7,1.6,12.2c2.1,2.5,6,3.8,11.9,3.8C734.3,37.4,738.8,36.1,741.9,33.4z"/>
	<path fill-rule="evenodd" clip-rule="evenodd" fill="#FFFFFF" d="M747.8,168.7H777L791.6,86c6.8-2.8,13.2-5.1,19.3-6.8
		c6.1-1.8,11.4-2.6,15.9-2.6c5.2,0,8.7,1.4,10.6,4.1c1.9,2.7,2.3,7.3,1.1,13.8l-13.1,74.3h29.2l14.8-84.2c1.8-10.2,0.4-18-4.1-23.3
		c-4.5-5.3-11.7-8-21.5-8c-6.4,0-13.6,1.2-21.6,3.6c-8,2.4-17.8,6.2-29.5,11.5h-1.3l0.6-13h-24.4L747.8,168.7z"/>
</g>
<path fill-rule="evenodd" clip-rule="evenodd" fill="#FFFFFF" d="M39.6,175.8c34.2,8.3,79-27.9,70.5-55.5c2.8,0.6,5.7,0.8,8.6,0.8
	c18.4,0,34.2-11.2,41-27.1c5.6,10.3,8.6,20.3,9.6,29.7c-4.9,39.5-38.6,70-79.4,70C70.9,193.7,53.3,187,39.6,175.8z M87.7,78.5
	c0-17.2,13.9-31.1,31.1-31.1s31.1,13.9,31.1,31.1s-13.9,31.1-31.1,31.1S87.7,95.7,87.7,78.5z M0,113.7c0,49.7,40.3,90,90,90
	s90-40.3,90-90s-40.3-90-90-90S0,64,0,113.7z"/>
</svg>
