<svg xmlns="http://www.w3.org/2000/svg" viewBox="0 0 522.657 404.518"><title>micronaut</title><path d="M310.2,151.118a6.194,6.194,0,1,0,5.984-4.6A6.17,6.17,0,0,0,310.2,151.118Z" style="fill:#fff"/><path d="M305.984,118.249a6.207,6.207,0,0,0,1.6,12.2h0a6.207,6.207,0,1,0,0-12.413A6.278,6.278,0,0,0,305.984,118.249Z" style="fill:#fff"/><path d="M281.515,108.266a6.2,6.2,0,1,0-1.818-4.39A6.166,6.166,0,0,0,281.515,108.266Z" style="fill:#fff"/><path d="M255.33,103.081a6.2,6.2,0,0,0,1.6.212h0a6.206,6.206,0,0,0,5.371-9.309,6.232,6.232,0,0,0-5.38-3.1,6.206,6.206,0,0,0-1.6,12.2Z" style="fill:#fff"/><path d="M226.849,99.7a6.2,6.2,0,0,0,1.611,12.2,6.286,6.286,0,0,0,1.6-.211A6.205,6.205,0,1,0,226.849,99.7Z" style="fill:#fff"/><path d="M208.088,133.583a6.205,6.205,0,1,0-4.387-1.818A6.164,6.164,0,0,0,208.088,133.583Z" style="fill:#fff"/><path d="M207.292,157.942a6.193,6.193,0,1,0-5.988,4.608A6.218,6.218,0,0,0,207.292,157.942Z" style="fill:#fff"/><path d="M211.505,190.823a6.215,6.215,0,1,0-1.6.209A6.221,6.221,0,0,0,211.505,190.823Z" style="fill:#fff"/><path d="M231.587,198.985a6.209,6.209,0,1,0,4.383,1.819A6.171,6.171,0,0,0,231.587,198.985Z" style="fill:#fff"/><path d="M262.16,205.99a6.2,6.2,0,1,0,3.766,2.888A6.2,6.2,0,0,0,262.16,205.99Z" style="fill:#fff"/><path d="M290.642,209.376a6.2,6.2,0,1,0-3.213-11.982,6.2,6.2,0,0,0-4.385,7.591,6.216,6.216,0,0,0,5.993,4.6A6.282,6.282,0,0,0,290.642,209.376Z" style="fill:#fff"/><path d="M313.79,177.3a6.212,6.212,0,1,0,0,8.778A6.184,6.184,0,0,0,313.79,177.3Z" style="fill:#fff"/><path d="M338.114,152.871A7.259,7.259,0,0,0,345.121,162h0a7.257,7.257,0,1,0-7.008-9.128Z" style="fill:#fff"/><path d="M331.777,104.522a7.254,7.254,0,0,0,1.873,14.26h0a7.259,7.259,0,0,0,6.282-3.628,7.259,7.259,0,0,0-6.276-10.881A7.324,7.324,0,0,0,331.777,104.522Z" style="fill:#fff"/><path d="M302.111,72.581a7.253,7.253,0,0,0,0,14.506h0a7.253,7.253,0,1,0,0-14.506Z" style="fill:#fff"/><path d="M257.074,75.162a7.252,7.252,0,0,0,3.758-14.009,7.252,7.252,0,1,0-3.758,14.009Z" style="fill:#fff"/><path d="M215.744,72.376a7.252,7.252,0,1,0,7,5.373A7.237,7.237,0,0,0,215.744,72.376Z" style="fill:#fff"/><path d="M184.049,118.418a7.255,7.255,0,1,0-5.13-2.124A7.208,7.208,0,0,0,184.049,118.418Z" style="fill:#fff"/><path d="M179.375,156.206a7.254,7.254,0,1,0-7,5.374A7.281,7.281,0,0,0,179.375,156.206Z" style="fill:#fff"/><path d="M183.842,204.8a7.255,7.255,0,1,0-7.008-5.379,7.294,7.294,0,0,0,7.008,5.379Z" style="fill:#fff"/><path d="M215.383,236.487a7.181,7.181,0,0,0,5.122-2.122,7.255,7.255,0,1,0-12.381-5.128,7.254,7.254,0,0,0,7.259,7.25Z" style="fill:#fff"/><path d="M260.413,233.907a7.251,7.251,0,0,0-8.157,10.63,7.253,7.253,0,1,0,8.157-10.63Z" style="fill:#fff"/><path d="M301.753,236.694a7.256,7.256,0,1,0-7-5.373,7.208,7.208,0,0,0,7,5.373Z" style="fill:#fff"/><path d="M333.445,190.649a7.251,7.251,0,1,0,5.128,2.123A7.207,7.207,0,0,0,333.445,190.649Z" style="fill:#fff"/><path d="M377.1,158.864a9.314,9.314,0,1,0,5.654,4.34A9.315,9.315,0,0,0,377.1,158.864Z" style="fill:#fff"/><path d="M365.823,98.785a9.323,9.323,0,1,0,8.991,6.908A9.395,9.395,0,0,0,365.823,98.785Z" style="fill:#fff"/><path d="M328.255,70.11a9.317,9.317,0,1,0-6.588-2.73A9.255,9.255,0,0,0,328.255,70.11Z" style="fill:#fff"/><path d="M269.66,47.6a9.321,9.321,0,1,0-6.59-11.417A9.328,9.328,0,0,0,269.66,47.6Z" style="fill:#fff"/><path d="M212.312,56.784a9.353,9.353,0,0,0,2.417-.321,9.319,9.319,0,0,0-2.41-18.321,9.321,9.321,0,0,0-.007,18.642Z" style="fill:#fff"/><path d="M174.322,85.021a9.312,9.312,0,1,0-2.73,6.592A9.254,9.254,0,0,0,174.322,85.021Z" style="fill:#fff"/><path d="M140.394,150.206a9.32,9.32,0,1,0-6.59-11.416,9.315,9.315,0,0,0,6.59,11.416Z" style="fill:#fff"/><path d="M149.259,191.96a9.324,9.324,0,1,0,2.417-.318A9.329,9.329,0,0,0,149.259,191.96Z" style="fill:#fff"/><path d="M189.23,257.594a9.319,9.319,0,1,0-6.584-2.728A9.277,9.277,0,0,0,189.23,257.594Z" style="fill:#fff"/><path d="M243,279.482a9.317,9.317,0,0,0,11.413-6.587A9.32,9.32,0,1,0,243,279.482Z" style="fill:#fff"/><path d="M305.168,270.926h0a9.32,9.32,0,1,0-2.41-18.318,9.318,9.318,0,0,0,2.408,18.318Z" style="fill:#fff"/><path d="M359.076,230.64a9.316,9.316,0,1,0-6.585,2.729A9.25,9.25,0,0,0,359.076,230.64Z" style="fill:#fff"/><path d="M412.909,195.84a10.836,10.836,0,1,0-10.474,8.045A10.867,10.867,0,0,0,412.909,195.84Z" style="fill:#fff"/><path d="M402.426,126.889a10.94,10.94,0,0,0,2.809-.371,10.844,10.844,0,1,0-2.809.371Z" style="fill:#fff"/><path d="M363.928,60.2a10.862,10.862,0,1,0-7.669-3.18A10.786,10.786,0,0,0,363.928,60.2Z" style="fill:#fff"/><path d="M294.437,21.331a10.912,10.912,0,0,0,2.813.373h0a10.861,10.861,0,1,0-2.815-.373Z" style="fill:#fff"/><path d="M220.237,21.7h0a10.85,10.85,0,1,0-10.471-8.043A10.86,10.86,0,0,0,220.239,21.7Z" style="fill:#fff"/><path d="M153.564,60.2a10.844,10.844,0,1,0-7.676-3.176A10.767,10.767,0,0,0,153.564,60.2Z" style="fill:#fff"/><path d="M112.256,126.514a10.847,10.847,0,0,0,2.817.375h0a10.869,10.869,0,1,0-2.819-.375Z" style="fill:#fff"/><path d="M117.869,203.512a10.85,10.85,0,0,0-2.789-21.329,10.9,10.9,0,0,0-9.415,5.43,10.847,10.847,0,0,0,12.2,15.9Z" style="fill:#fff"/><path d="M153.559,248.866a10.851,10.851,0,0,0,0,21.7h0a10.851,10.851,0,1,0,0-21.7Z" style="fill:#fff"/><path d="M229.64,292.793a10.768,10.768,0,0,0-6.59-5.051,10.835,10.835,0,0,0-13.287,7.668,10.85,10.85,0,0,0,7.679,13.28,10.812,10.812,0,0,0,13.279-7.657A10.777,10.777,0,0,0,229.64,292.793Z" style="fill:#fff"/><path d="M300.05,308.687a10.84,10.84,0,1,0-5.612-20.941,10.84,10.84,0,1,0,5.612,20.941Z" style="fill:#fff"/><path d="M353.078,259.716a10.859,10.859,0,1,0,3.181-7.667A10.769,10.769,0,0,0,353.078,259.716Z" style="fill:#fff"/><path d="M288.579,163.336,290,161.755c.267-.271.53-.539.8-.811l-.066-.008.079-.088a9.293,9.293,0,0,0-1.347-.115,3.548,3.548,0,0,0-2.77,1.129,28.743,28.743,0,0,1-3.386,2.917,35.513,35.513,0,0,1-3.474,2.271,4.327,4.327,0,0,1-2.212.588,5.99,5.99,0,0,1-1.459-.193,2.53,2.53,0,0,1-2.136-2.663,7.612,7.612,0,0,1,.124-1.53c1.231-5.98,4.663-22.465,5.5-26.929.051-.247.1-.46.129-.618h-.018l.017-.1-4.217.1h-6.97c-.018.055-.037.109-.056.164l-.105,0a4.625,4.625,0,0,0-.153.5L262.4,164.209c-.059.283-.141.67-.315.77-.382.225-.761.466-1.141.7a15.031,15.031,0,0,1-3.473,1.8,4.813,4.813,0,0,1-1.389.224,2.82,2.82,0,0,1-2.165-.9,3.931,3.931,0,0,1-.793-3.081c.045-.371,4.573-21.939,5.6-27.3.067-.315.12-.566.156-.734h-.018c0-.031.013-.071.017-.1l-11.345.078-11.109,52.34s.927-.21,1.85-.43c2.3-.551,6.341-1.516,8.554-1.961,1.368-.283,1.937-.882,2.032-2.134a12.014,12.014,0,0,1,.348-1.859l.181-.78.576-2.7.595-3.142c4.446-.194,7.556-2.809,10.566-5.336a10.545,10.545,0,0,0,1.12-1.061l.241-.2a6.991,6.991,0,0,0,4.82,5.792,14.066,14.066,0,0,0,4.383.77,9.85,9.85,0,0,0,5.789-1.843,59.7,59.7,0,0,0,6.042-4.815C285.246,166.728,286.893,165.051,288.579,163.336Z" style="fill:#fff"/><polygon points="31.455 364.546 20.9 395.267 20.761 395.37 9.697 364.441 0 364.597 0.156 403.586 6.301 403.43 6.216 371.34 17.618 403.586 23.61 403.483 34.927 371.288 35.084 403.586 41.733 403.586 41.577 364.441 31.455 364.546" style="fill:#fff"/><polygon points="74.128 364.597 74.284 403.586 80.938 403.586 80.782 364.441 74.128 364.597" style="fill:#fff"/><path d="M122.605,372.965a10.549,10.549,0,0,1,3.518-3.351,9.9,9.9,0,0,1,5.044-1.243,11.751,11.751,0,0,1,4.418.838,12.792,12.792,0,0,1,3.838,2.581l4.059-3.565a12.792,12.792,0,0,0-5.408-3.552,21.349,21.349,0,0,0-7.192-1.162,18.119,18.119,0,0,0-7.607,1.549,16.685,16.685,0,0,0-5.754,4.291,19.394,19.394,0,0,0-3.642,6.494,27.217,27.217,0,0,0-.03,16.307,19.439,19.439,0,0,0,3.561,6.5,16.184,16.184,0,0,0,5.755,4.318,18.58,18.58,0,0,0,7.717,1.551,17.728,17.728,0,0,0,7.424-1.411,12.439,12.439,0,0,0,5.014-3.966L139.2,395.93a9.857,9.857,0,0,1-7.889,3.723,10.106,10.106,0,0,1-5.079-1.241,10.66,10.66,0,0,1-3.594-3.378,16.136,16.136,0,0,1-2.145-4.966,24.83,24.83,0,0,1-.713-6.054,25.149,25.149,0,0,1,.713-6.079A16.135,16.135,0,0,1,122.605,372.965Z" style="fill:#fff"/><path d="M194.409,384.372a10.587,10.587,0,0,0,2.848-1.974,9.946,9.946,0,0,0,2.118-3.037,10.079,10.079,0,0,0,.813-4.179,10.371,10.371,0,0,0-1.1-4.953,9.192,9.192,0,0,0-3.02-3.347,13.173,13.173,0,0,0-4.428-1.857,23.713,23.713,0,0,0-5.351-.584l-13.4.156.156,38.989,6.511-.156-.156-17.176,5.777-.086,8.8,17.418h7.26L191.4,385.318A11.047,11.047,0,0,0,194.409,384.372Zm-9.025-2.271-5.831.156V368.87h5.688a15.34,15.34,0,0,1,3,.3,7.259,7.259,0,0,1,2.614,1.048,5.932,5.932,0,0,1,1.827,1.984,6.331,6.331,0,0,1,.7,3.173,6.012,6.012,0,0,1-2.178,4.97A9.074,9.074,0,0,1,185.384,382.1Z" style="fill:#fff"/><path d="M259.739,369.133a15.8,15.8,0,0,0-5.534-4.156,17.857,17.857,0,0,0-7.392-1.466,18.54,18.54,0,0,0-7.534,1.466,15.283,15.283,0,0,0-5.572,4.156,18.281,18.281,0,0,0-3.423,6.47,28.361,28.361,0,0,0-1.161,8.352,27.654,27.654,0,0,0,1.2,8.359,18.683,18.683,0,0,0,3.488,6.5,15.9,15.9,0,0,0,5.575,4.208,17.837,17.837,0,0,0,7.426,1.5,17.548,17.548,0,0,0,7.392-1.5,15.932,15.932,0,0,0,5.534-4.207,18.74,18.74,0,0,0,3.5-6.5,29.669,29.669,0,0,0,0-16.712A18.432,18.432,0,0,0,259.739,369.133Zm-3.158,20.986a16.634,16.634,0,0,1-2,5,10.262,10.262,0,0,1-3.27,3.324,8.383,8.383,0,0,1-4.5,1.21,8.742,8.742,0,0,1-4.611-1.21,10.184,10.184,0,0,1-3.305-3.324,15.98,15.98,0,0,1-1.962-5,29.736,29.736,0,0,1,0-12.329A15.964,15.964,0,0,1,238.9,372.8a10.168,10.168,0,0,1,3.305-3.325,8.746,8.746,0,0,1,4.611-1.213,8.411,8.411,0,0,1,4.5,1.211,10.278,10.278,0,0,1,3.27,3.326,16.706,16.706,0,0,1,2,5,27.978,27.978,0,0,1,0,12.324Z" style="fill:#fff"/><polygon points="320.689 364.597 320.689 399.856 299.883 364.441 296.513 364.597 296.669 403.605 299.194 403.449 299.194 368.137 320.07 403.605 323.365 403.605 323.209 364.441 320.689 364.597" style="fill:#fff"/><path d="M364.647,364.546l-13.326,39.059,2.562-.1,3.747-10.764,17.262-.106,3.828,10.973h2.632L368.1,364.441Zm-6.239,26.244,8.032-23.713,7.984,23.508Z" style="fill:#fff"/><path d="M432.615,364.6v23.946a34.541,34.541,0,0,1-.387,5.158,11.5,11.5,0,0,1-1.591,4.372,8.887,8.887,0,0,1-3.327,3.069,14.5,14.5,0,0,1-11.453-.025,8.684,8.684,0,0,1-3.3-3.114,12.117,12.117,0,0,1-1.553-4.4,32.516,32.516,0,0,1-.393-5.055l-.156-24.1-2.525.156v24.538a27.565,27.565,0,0,0,.622,5.954A12.752,12.752,0,0,0,410.786,400a10.752,10.752,0,0,0,4.25,3.291,16.258,16.258,0,0,0,6.576,1.176,16.086,16.086,0,0,0,6.508-1.176A10.763,10.763,0,0,0,432.373,400a12.824,12.824,0,0,0,2.256-4.9,25.457,25.457,0,0,0,.667-5.959l-.156-24.694Z" style="fill:#fff"/><polygon points="484.823 364.441 462.095 364.597 462.251 366.597 472.194 366.441 472.35 403.605 474.88 403.605 474.724 366.597 484.98 366.441 484.823 364.441" style="fill:#fff"/><path d="M515.93,365.021a3.209,3.209,0,0,0,1.082-2.6,3.076,3.076,0,0,0-1.256-2.693,5.173,5.173,0,0,0-3.022-.82l-4.112.142.142,12.325,1.981-.142-.142-5.069,1.364-.065,3.507,5.276h2.483l-3.908-5.446A4.366,4.366,0,0,0,515.93,365.021Zm-5.185-.531v-3.763h1.82a3.9,3.9,0,0,1,1.7.381c.421.2.624.638.624,1.338a1.474,1.474,0,0,1-.695,1.46,4.755,4.755,0,0,1-2.2.442Z" style="fill:#fff"/><path d="M521.922,360.762a9.861,9.861,0,0,0-2.084-3.393,9.466,9.466,0,0,0-3.188-2.171,11.27,11.27,0,0,0-8.173,0,9.465,9.465,0,0,0-3.188,2.171,9.743,9.743,0,0,0-2.082,3.395,13.785,13.785,0,0,0,0,8.894,9.994,9.994,0,0,0,2.079,3.413,9.04,9.04,0,0,0,3.194,2.176,11.578,11.578,0,0,0,8.167,0,9.04,9.04,0,0,0,3.194-2.176,10.058,10.058,0,0,0,2.081-3.413,13.826,13.826,0,0,0,0-8.9Zm-1.952,8.056a8.674,8.674,0,0,1-1.6,2.832,7.173,7.173,0,0,1-2.481,1.859,8.638,8.638,0,0,1-6.647,0,7.088,7.088,0,0,1-2.483-1.859,8.655,8.655,0,0,1-1.6-2.832,11.737,11.737,0,0,1,0-7.214,8.576,8.576,0,0,1,1.6-2.831,7.133,7.133,0,0,1,2.483-1.862,8.662,8.662,0,0,1,6.647,0,7.26,7.26,0,0,1,2.481,1.86,8.659,8.659,0,0,1,1.6,2.833,11.816,11.816,0,0,1,0,7.214Z" style="fill:#fff"/></svg>
