<svg viewBox="0 0 1280 195" xmlns="http://www.w3.org/2000/svg"><g fill="#fff"><path d="m404 89.39q0 25.9-10.49 43.07a52.31 52.31 0 0 1 -29.61 23.24l32.3 33.39h-22.91l-26.45-30.44-5.11.19q-30 0-46.27-18.22t-16.29-51.42q0-32.93 16.34-51.05t46.41-18.15q29.24 0 45.66 18.45t16.42 50.94zm-108.14 0q0 27.39 11.74 41.55t34.11 14.15q22.56 0 34.07-14.11t11.51-41.59q0-27.21-11.47-41.27t-33.9-14.07q-22.56 0-34.3 14.16t-11.74 41.18z"/><path d="m559.56 22.15v87.25q0 23.05-14 36.25t-38.56 13.19q-24.51 0-37.92-13.29t-13.38-36.55v-86.85h15.78v88q0 16.88 9.28 25.91t27.29 9q17.16 0 26.45-9.08t9.28-25.98v-87.85z"/><path d="m703.6 157-16.9-42.9h-54.39l-16.71 42.9h-16l53.69-135.4h13.27l53.37 135.4zm-21.82-57-15.78-41.79q-3.07-7.92-6.32-19.46a172.55 172.55 0 0 1 -5.85 19.46l-16 41.78z"/><path d="m777.19 100.92v56.08h-15.79v-134.85h37.23q25 0 36.89 9.5t11.93 28.59q0 26.74-27.29 36.16l36.84 60.6h-18.65l-32.86-56.07zm0-13.47h21.62q16.71 0 24.51-6.6t7.79-19.78q0-13.37-7.93-19.27t-25.48-5.91h-20.51z"/><path d="m999.75 157h-18.57l-49.47-65.4-14.2 12.54v52.86h-15.78v-134.85h15.78v66.85l61.54-66.87h18.66l-54.58 58.59z"/><path d="m1143.69 22.15v87.25q0 23.05-14 36.25t-38.52 13.19q-24.5 0-37.92-13.29t-13.43-36.55v-86.85h15.78v88q0 16.88 9.28 25.91t27.29 9q17.17 0 26.46-9.08t9.28-26.06v-87.77z"/><path d="m1279 121.11q0 17.8-13 27.76t-35.28 10q-24.13 0-37.13-6.18v-15.16a97.82 97.82 0 0 0 18.2 5.53 95.67 95.67 0 0 0 19.49 2q15.78 0 23.76-6t8-16.55q0-7-2.83-11.48t-9.46-8.26q-6.65-3.78-20.19-8.58-18.94-6.72-27.06-16t-8.12-24.07q0-15.58 11.79-24.81t31.18-9.22a92.55 92.55 0 0 1 37.22 7.37l-4.91 13.65q-16.82-7-32.68-7-12.53 0-19.58 5.35t-7.06 14.85q0 7 2.6 11.48t8.77 8.21q6.18 3.73 18.89 8.26 21.36 7.56 29.38 16.23t8.02 22.62z"/></g><path d="m126.05 34.6-29.44 16.99 29.44 17z" fill="#4695eb"/><path d="m67.17 34.6v33.99l29.44-17z" fill="#ff004a"/><path d="m126.05 68.59-29.44-17-29.44 17 29.44 17z" fill="#fff"/><path d="m36.13 88.36 29.44 17v-33.99z" fill="#4695eb"/><path d="m65.57 139.35 29.44-16.99-29.44-17z" fill="#ff004a"/><path d="m65.57 71.37v33.99l29.44 17v-34z" fill="#fff"/><path d="m127.65 139.35v-33.99l-29.44 17z" fill="#4695eb"/><path d="m157.09 88.36-29.44-16.99v33.99z" fill="#ff004a"/><path d="m98.21 122.36 29.44-17v-33.99l-29.44 16.99z" fill="#fff"/><path d="m160.5 1h-127.78a31.81 31.81 0 0 0 -31.72 31.72v127.78a31.81 31.81 0 0 0 31.72 31.72h87.51l-23.62-57.37-17.13 36.22h-46.76a10.71 10.71 0 0 1 -10.57-10.57v-127.78a10.71 10.71 0 0 1 10.57-10.57h127.78a10.71 10.71 0 0 1 10.57 10.57v127.78a10.71 10.71 0 0 1 -10.57 10.57h-27.73l8.71 21.15h19a31.81 31.81 0 0 0 31.72-31.72v-127.78a31.81 31.81 0 0 0 -31.7-31.72z" fill="#4695eb"/></svg>