<?xml version="1.0" standalone="no"?><!DOCTYPE svg PUBLIC "-//W3C//DTD SVG 1.1//EN" "http://www.w3.org/Graphics/SVG/1.1/DTD/svg11.dtd"><svg t="1618410597834" class="icon" viewBox="0 0 1024 1024" version="1.1" xmlns="http://www.w3.org/2000/svg" p-id="12256" width="32" height="32" xmlns:xlink="http://www.w3.org/1999/xlink"><defs><style type="text/css"></style></defs><path d="M269.482667 961.962667c0.554667-2.773333-1.578667-4.821333-6.4-6.186667l-4.394667-1.109333c-7.253333-1.92-12.586667-4.608-15.957333-8.106667a15.957333 15.957333 0 0 1-4.736-12.288 19.541333 19.541333 0 0 1 8.618666-15.786667 32.981333 32.981333 0 0 1 20.352-6.016c7.978667 0.085333 14.421333 2.133333 19.328 6.058667a19.754667 19.754667 0 0 1 7.552 16l-20.48-0.085333c0.170667-5.333333-2.218667-7.978667-7.082666-7.978667a9.941333 9.941333 0 0 0-5.802667 1.877333 7.04 7.04 0 0 0-3.2 4.864c-0.682667 3.413333 2.304 5.674667 8.96 6.954667 5.76 1.365333 10.24 2.986667 13.44 4.821333 3.157333 1.749333 5.546667 4.010667 7.253333 6.656 1.664 2.688 2.432 5.888 2.304 9.642667a18.048 18.048 0 0 1-4.010666 10.922667 25.856 25.856 0 0 1-11.093334 7.68 39.338667 39.338667 0 0 1-15.573333 2.688 32 32 0 0 1-13.653333-3.072 24.618667 24.618667 0 0 1-9.813334-8.106667 21.504 21.504 0 0 1-3.626666-11.861333l19.157333 0.128c0.042667 5.973333 3.072 8.96 8.96 8.874666 2.56 0 4.693333-0.597333 6.528-1.706666a7.552 7.552 0 0 0 3.370667-4.864z m67.925333 11.989333a22.4 22.4 0 0 1-18.261333 8.704c-6.613333-0.085333-11.605333-2.389333-14.976-6.954667-3.328-4.522667-4.608-10.624-3.84-18.261333l7.253333-43.733333h20.565333l-7.424 43.989333a14.634667 14.634667 0 0 0 0 3.328c0.298667 3.413333 2.304 5.162667 6.058667 5.290667a13.269333 13.269333 0 0 0 11.093333-5.12l8.362667-47.488H366.933333L355.157333 981.333333h-19.114666l1.365333-7.381333z m77.653333-41.173333a58.368 58.368 0 0 0-6.4-0.64 15.872 15.872 0 0 0-14.08 6.4L386.858667 981.333333h-20.565334l11.776-67.626666 19.2-0.042667-1.578666 8.874667c4.394667-6.826667 9.6-10.24 15.616-10.24 1.706667 0 3.84 0.256 6.4 0.853333l-2.688 19.626667z m31.274667 49.792a31.829333 31.829333 0 0 1-16.170667-4.266667 27.264 27.264 0 0 1-10.666666-11.733333 31.744 31.744 0 0 1-2.901334-16.64l0.213334-1.706667c1.109333-11.136 4.949333-19.925333 11.52-26.410667a32.128 32.128 0 0 1 24.32-9.386666 24.448 24.448 0 0 1 23.936 16.213333c1.92 5.077333 2.56 10.666667 1.877333 16.938667l-1.152 8.533333h-40.277333c0.085333 3.584 1.109333 6.442667 2.986666 8.661333 1.92 2.218667 4.693333 3.370667 8.405334 3.498667 5.973333 0.170667 11.306667-2.133333 16.042666-6.869333l8.618667 11.434666a25.6 25.6 0 0 1-10.666667 8.533334 37.546667 37.546667 0 0 1-14.933333 3.2H446.293333z m5.034667-53.930667a10.666667 10.666667 0 0 0-7.68 2.773333 23.296 23.296 0 0 0-5.546667 9.6h20.565333l0.426667-1.792a13.866667 13.866667 0 0 0 0.085333-4.138666c-0.682667-4.181333-3.328-6.314667-7.850666-6.4z m60.117333-14.976l-1.450667 8.106667a24.021333 24.021333 0 0 1 19.584-9.386667c6.229333 0.128 10.88 2.474667 13.909334 6.997333 3.114667 4.522667 4.224 10.965333 3.413333 19.370667L539.733333 981.333333h-20.608l7.168-42.666666a22.058667 22.058667 0 0 0 0.128-4.010667c-0.256-3.968-2.602667-5.973333-6.997333-5.973333-3.626667-0.042667-6.912 1.536-9.941333 4.821333L501.12 981.333333h-20.565333l11.733333-67.626666 19.2-0.042667z m73.728 68.906667a31.829333 31.829333 0 0 1-16.213333-4.266667 27.264 27.264 0 0 1-10.666667-11.733333 31.744 31.744 0 0 1-2.858667-16.64l0.170667-1.706667c1.152-11.136 4.992-19.925333 11.562667-26.410667a32.128 32.128 0 0 1 24.32-9.386666 24.448 24.448 0 0 1 23.936 16.213333c1.92 5.077333 2.56 10.666667 1.877333 16.938667l-1.194667 8.533333h-40.234666c0.085333 3.584 1.066667 6.442667 2.986666 8.661333 1.92 2.218667 4.693333 3.370667 8.405334 3.498667 5.973333 0.170667 11.306667-2.133333 16.042666-6.869333l8.618667 11.434666a25.642667 25.642667 0 0 1-10.666667 8.533334 37.546667 37.546667 0 0 1-14.933333 3.2h-1.152z m5.034667-53.930667a10.666667 10.666667 0 0 0-7.68 2.773333 23.296 23.296 0 0 0-5.546667 9.6h20.565333l0.426667-1.792a13.824 13.824 0 0 0 0.085333-4.138666c-0.725333-4.181333-3.328-6.314667-7.850666-6.4z m67.712 33.28c0.554667-2.730667-1.578667-4.778667-6.357334-6.144l-4.437333-1.109333c-7.253333-1.92-12.544-4.608-15.957333-8.106667a15.957333 15.957333 0 0 1-4.693334-12.288 19.541333 19.541333 0 0 1 8.576-15.786667 32.981333 32.981333 0 0 1 20.394667-6.016c7.936 0.085333 14.378667 2.133333 19.285333 6.058667a19.754667 19.754667 0 0 1 7.594667 16l-20.48-0.085333c0.128-5.333333-2.218667-7.978667-7.082667-7.978667a9.984 9.984 0 0 0-5.845333 1.877333 7.082667 7.082667 0 0 0-3.157333 4.864c-0.725333 3.413333 2.261333 5.674667 8.96 6.954667 5.76 1.365333 10.24 2.986667 13.397333 4.821333 3.157333 1.749333 5.589333 4.010667 7.253333 6.656a16.725333 16.725333 0 0 1 2.304 9.642667 18.090667 18.090667 0 0 1-4.010666 10.922667 25.856 25.856 0 0 1-11.050667 7.68 39.338667 39.338667 0 0 1-15.616 2.688 32 32 0 0 1-13.653333-3.072 24.618667 24.618667 0 0 1-9.813334-8.106667 21.461333 21.461333 0 0 1-3.584-11.861333l19.114667 0.128c0.085333 5.973333 3.072 8.96 8.96 8.874666 2.56 0 4.736-0.597333 6.528-1.706666a7.552 7.552 0 0 0 3.413333-4.864z m64.256 0c0.554667-2.730667-1.578667-4.778667-6.4-6.144l-4.394667-1.109333c-7.253333-1.92-12.586667-4.608-15.957333-8.106667a15.957333 15.957333 0 0 1-4.736-12.288 19.541333 19.541333 0 0 1 8.618666-15.786667 32.981333 32.981333 0 0 1 20.394667-6.016c7.936 0.085333 14.378667 2.133333 19.285333 6.058667a19.754667 19.754667 0 0 1 7.594667 16l-20.48-0.085333c0.128-5.333333-2.218667-7.978667-7.125333-7.978667a9.941333 9.941333 0 0 0-5.802667 1.877333 7.04 7.04 0 0 0-3.157333 4.864c-0.725333 3.413333 2.261333 5.674667 8.96 6.954667 5.76 1.365333 10.24 2.986667 13.397333 4.821333 3.157333 1.749333 5.546667 4.010667 7.253333 6.656a16.64 16.64 0 0 1 2.304 9.642667 18.048 18.048 0 0 1-4.010666 10.922667 25.898667 25.898667 0 0 1-11.050667 7.68 39.338667 39.338667 0 0 1-15.616 2.688 32 32 0 0 1-13.653333-3.072 24.576 24.576 0 0 1-9.813334-8.106667 21.504 21.504 0 0 1-3.584-11.861333l19.114667 0.128c0.085333 5.973333 3.072 8.96 8.96 8.874666a11.946667 11.946667 0 0 0 6.528-1.706666 7.552 7.552 0 0 0 3.413333-4.864z" fill="#AAAA93" fill-opacity=".99" p-id="12257"></path><path d="M212.437333 214.570667L336.384 160.853333V98.261333L503.466667 58.453333l169.813333 39.808v62.336l125.184 55.893334v130.432C744.362667 631.424 502.912 490.666667 502.912 490.666667S279.466667 642.218667 209.536 346.965333c0 0-0.853333-110.250667 2.901333-132.394666z m639.872-23.04l-2.816-14.549334L730.24 123.733333V53.162667L503.381333 0 279.466667 53.248v70.229333L163.242667 173.824l-3.413334 13.568C158.72 191.445333 134.741333 288.810667 163.584 418.56A597.973333 597.973333 0 0 0 257.408 631.466667c56.32 80.938667 134.101333 152.021333 231.168 211.2l14.336 8.789333 14.592-8.32c94.250667-53.76 170.581333-121.301333 226.858667-200.874667a616.618667 616.618667 0 0 0 96.128-212.778666c31.701333-131.541333 12.672-233.642667 11.818666-237.909334z" fill="#600082" p-id="12258"></path><path d="M504.106667 0l-1.194667 851.370667C946.133333 607.658667 849.493333 177.024 849.493333 177.024L730.24 123.733333V53.162667L504.106667 0z" fill="#000000" fill-opacity=".15" p-id="12259"></path><path d="M446.848 361.344h-38.784L397.312 384h-31.402667l64.256-121.344h26.837334L479.402667 384h-29.653334l-2.901333-22.656z m-28.117333-22.613333h25.173333l-5.333333-41.813334-19.84 41.813334z m106.197333 4.096L517.76 384h-28.501333l20.992-121.344 43.562666 0.085333c13.525333 0 24.149333 3.754667 31.872 11.264 7.765333 7.509333 11.178667 17.237333 10.24 29.141334a39.68 39.68 0 0 1-7.850666 21.290666c-4.565333 5.973333-10.581333 10.581333-18.090667 13.738667-7.424 3.157333-15.786667 4.736-25.088 4.736l-19.968-0.085333z m3.925333-22.613334l17.152 0.213334a21.248 21.248 0 0 0 16.597334-6.997334 21.077333 21.077333 0 0 0 4.565333-16.768 12.501333 12.501333 0 0 0-3.925333-7.978666 13.013333 13.013333 0 0 0-8.405334-3.370667l-19.925333-0.042667-6.058667 34.986667zM628.352 384h-28.501333l21.077333-121.344h28.416L628.352 384z" fill="#3F6797" fill-opacity=".99" p-id="12260"></path></svg>