<?xml version="1.0" standalone="no"?><!DOCTYPE svg PUBLIC "-//W3C//DTD SVG 1.1//EN" "http://www.w3.org/Graphics/SVG/1.1/DTD/svg11.dtd"><svg t="1602771753892" class="icon" viewBox="0 0 1024 1024" version="1.1" xmlns="http://www.w3.org/2000/svg" p-id="2884" width="32" height="32" xmlns:xlink="http://www.w3.org/1999/xlink"><defs><style type="text/css"></style></defs><path d="M841.55 569.9v118.23H184.28V569.9c0-181.18 147.41-328.59 328.59-328.59 181.27 0 328.68 147.41 328.68 328.59z" fill="#FBC8D5" p-id="2885"></path><path d="M516.81 544.46c-2.63 0-5.28-0.28-7.91-0.85-14.24-3.07-25.43-14.26-28.5-28.5-1.54-7.15 3.01-14.2 10.16-15.74 7.15-1.54 14.2 3.01 15.74 10.16 0.89 4.1 4.09 7.3 8.19 8.19 2.77 0.6 5.66 0.08 8.04-1.47 2.38-1.53 4.06-3.95 4.65-6.72 1.54-7.15 8.59-11.7 15.74-10.16 7.15 1.54 11.7 8.59 10.16 15.74-2.09 9.7-7.84 18.01-16.18 23.4-6.09 3.92-13.02 5.95-20.09 5.95z" fill="#582C77" p-id="2886"></path><path d="M516.81 546.54c-2.8 0-5.61-0.3-8.35-0.9-15.04-3.24-26.85-15.06-30.1-30.09-0.86-4.01-0.11-8.1 2.1-11.54 2.22-3.44 5.65-5.81 9.65-6.67 4-0.87 8.1-0.13 11.54 2.1 3.44 2.22 5.81 5.65 6.67 9.65 0.71 3.29 3.3 5.87 6.59 6.59 2.22 0.48 4.57 0.06 6.46-1.17a8.582 8.582 0 0 0 3.75-5.41c0.86-4.01 3.24-7.44 6.68-9.66 3.44-2.23 7.54-2.97 11.54-2.1 4 0.86 7.43 3.22 9.65 6.67 2.22 3.44 2.97 7.53 2.11 11.54-2.21 10.24-8.28 19.02-17.09 24.71-6.37 4.11-13.7 6.28-21.2 6.28z m-23.42-45.38c-0.79 0-1.59 0.08-2.38 0.25-2.91 0.63-5.41 2.35-7.03 4.85a11.062 11.062 0 0 0-1.53 8.4c2.9 13.44 13.46 24 26.9 26.9 9 1.94 18.58 0.24 26.41-4.81 7.87-5.09 13.3-12.93 15.27-22.09 0.63-2.91 0.08-5.9-1.53-8.4-1.62-2.5-4.11-4.23-7.03-4.85-2.91-0.62-5.89-0.09-8.4 1.53-2.5 1.61-4.23 4.11-4.86 7.03-0.7 3.28-2.73 6.21-5.57 8.03a12.687 12.687 0 0 1-9.6 1.75 12.802 12.802 0 0 1-9.78-9.78c-0.63-2.91-2.35-5.41-4.86-7.03a11.1 11.1 0 0 0-6.01-1.78z" fill="#582C77" p-id="2887"></path><path d="M818.88 361.63c16.76-22.68 31.43-47.78 39.27-74.96 5.59-19.43 7.84-41.77 0.92-61.2-7.25-20.01-21.93-34.19-41.94-41.36-19.84-7.09-42.94-4.67-62.87 0.67-32.85 8.84-63.03 26.85-90.13 47.03 0 0.08-0.08 0.08-0.17 0.17-46.11-20.76-97.22-32.35-151.08-32.35-58.53 0-113.89 13.67-163.17 38.02-1.08-1.08-2.25-2.08-3.5-3.08-25.85-19.26-54.11-36.19-85.05-45.94-21.76-6.84-46.61-10.17-68.87-3.42-18.76 5.67-35.19 18.51-43.52 36.52-9.92 21.34-9.67 45.11-4.42 67.79 7.5 32.27 24.93 62.28 44.52 88.63 1.33 1.75 2.92 3.34 4.59 4.75-32.27 54.93-50.86 118.8-50.86 187v211.11c0 34.69 28.18 62.95 62.87 62.95h251.97c2.33 0.42 4.67 0.42 7 0H820.3c34.69 0 62.95-28.27 62.95-62.95V569.9c-0.01-77.2-23.77-148.91-64.37-208.27z m-94.97-119.15c5.34-3 10.76-5.84 16.34-8.42 1.33-0.58 2.67-1.17 3.92-1.75 0.25-0.17 0.67-0.33 1.08-0.5 2.84-1.08 5.67-2.17 8.5-3.17 4.75-1.67 9.51-3.17 14.42-4.34 2.25-0.58 4.5-1.08 6.84-1.5 1.25-0.25 2.5-0.5 3.75-0.67 4.17-0.42 8.34-0.67 12.51-0.58 1.42 0.08 2.75 0.17 4.17 0.25h0.17c0.67 0.08 1.25 0.08 1.83 0.17 1 0.08 1.08 0.17 0.83 0.25 0.17 0.08 0.42 0.08 0.5 0.08 1.83 0.42 3.59 0.83 5.42 1.42 0.33 0.08 0.67 0.25 1 0.33 0.08 0.08 0.25 0.08 0.33 0.17 0.17 0 0.33 0.08 0.5 0.17 1.08 0.25 1.42 0.58 1.42 0.75 0.5 0.25 1 0.42 1.42 0.67 0.5 0.25 1.08 0.75 1.58 1.08 0-0.25 0.5-0.17 1.25 0.58 0.25 0.25 0.5 0.5 0.75 0.67l0.25 0.25c0.25 0.25 0.5 0.42 0.67 0.58 0.92 0.92 1.75 1.83 2.58 2.84 0.17 0.17 0.33 0.42 0.42 0.58 1 1.58 1.83 3.17 2.75 4.84 0 0.08 0 0.08 0.08 0.25 0.42 1.58 0.92 3.08 1.33 4.67 0.17 0.75 0.67 3.58 0.83 4.42 0.08 1 0.17 2 0.17 3.08 0.17 3.67-0.08 7.34-0.33 11.01 0 0.25-0.08 0.5-0.08 0.83v0.33c0 0.42-0.17 0.83-0.25 1.08 0 0.25-0.08 0.58-0.08 0.83-0.5 2.58-1.08 5.17-1.75 7.75-1.42 5.67-3.25 11.17-5.34 16.59-0.08 0.33-0.25 0.58-0.42 0.92 0.08 0.08 0 0.17-0.08 0.25 0 0.08 0 0.17-0.08 0.25 0 0.17-0.08 0.42-0.25 0.58l-0.08 0.08c-0.5 1.17-1.17 2.75-1.33 3.17-1.42 3.09-2.83 6.17-4.42 9.09-4.42 8.59-9.42 16.76-14.76 24.76-25.01-28.68-54.28-53.53-86.88-73.46 6.09-3.98 12.18-7.73 18.52-11.23z m-531.54 60.2c-0.17-0.33-0.25-0.58-0.42-0.92 0-0.17-0.08-0.33-0.17-0.5-0.33-0.92-0.67-1.84-1.08-2.75-1.08-2.92-2.08-5.92-3.08-8.84-1.58-5.09-2.92-10.17-3.92-15.34-0.42-2-0.5-8.84-0.58-2.42 0-2.5-0.5-5.09-0.67-7.59-0.17-3.67-0.08-7.25 0.17-10.92l-0.25 0.25c0.08-0.08 0.17-0.5 0.25-0.92v-0.75c0.08-1.08 0.17-1.42 0.25-1.42l0.08-0.08c0.33-2.08 0.83-4.17 1.5-6.17 0.08-0.42 0.42-1.17 0.75-1.84-0.17 0-0.25-0.42 0.42-1.5 0.08-0.25 0.25-0.58 0.33-0.83 0.08-0.17 0.17-0.42 0.17-0.58 0 0.17-0.08 0.33-0.08 0.5 0.17-0.25 0.33-0.58 0.42-0.83 0.67-1.25 1.5-2.42 2.25-3.58 0.08-0.17 0.17-0.25 0.25-0.42 0.17-0.33 0.33-0.58 0.58-0.92 0.33-0.58 0.58-0.67 0.67-0.67 0.08 0 0.17-0.17 0.17-0.17 1.08-1.17 2.25-2.25 3.42-3.34h0.08l0.17-0.17c1.67-1 3.34-2.08 5-2.92 0.42-0.25 0.92-0.42 1.33-0.67h0.08c3.17-1 6.34-1.83 9.59-2.58h-0.5c0.17 0 0.5 0 0.83-0.08 0.08 0 0.17 0 0.25-0.08 0.67-0.08 1.08-0.08 1.42-0.08 0.08 0 0.25 0 0.33-0.08 2.58-0.17 5.17-0.25 7.75-0.17 2.08 0 4.17 0.08 6.25 0.25 0.92 0.08 1.92 0.25 2.84 0.33 5.34 0.83 10.51 1.92 15.68 3.42 6.5 1.75 12.76 4.09 19.01 6.5l0.08 0.08c0.25 0.08 0.42 0.17 0.67 0.25 0.17 0.08 0.33 0.17 0.5 0.25 0.08 0.08 0.17 0.08 0.25 0.08 0.08 0.08 0.08 0.08 0.17 0.08 1.58 0.75 3.08 1.42 4.67 2.17 3.42 1.58 6.75 3.25 10.01 5 10.42 5.5 20.43 11.76 30.18 18.34-35.69 23.43-67.12 52.7-92.8 86.63-6-8.67-11.76-17.51-16.76-26.76-3.09-5.57-5.92-11.41-8.51-17.24z m51.61 499.6h-38.52c-11.67 0-21.18-9.51-21.18-21.26V719.4h59.7v82.88z m100.64 0h-69.37V719.4h69.37v82.88z m100.64 0h-69.37V719.4h69.37v82.88z m100.72 0h-69.45V719.4h69.45v82.88z m31.27 0V719.4h69.37v77.71c0 1.75 0.42 3.5 1 5.17h-70.37z m170 0h-70.37c0.58-1.67 1-3.33 1-5.17V719.4h69.37v82.88z m94.3-21.26c0 11.76-9.51 21.26-21.26 21.26h-41.77V719.4h63.03v61.62z m0-92.88H184.28V569.9c0-181.18 147.41-328.59 328.59-328.59 181.26 0 328.68 147.41 328.68 328.59v118.24z" fill="#582C77" p-id="2888"></path><path d="M778.52 719.4v82.88h41.77c11.76 0 21.26-9.51 21.26-21.26V719.4h-63.03zM677.88 797.11c0 1.84-0.42 3.5-1 5.17h70.37V719.4h-69.37v77.71zM646.62 719.4h-69.37v82.88h70.37c-0.58-1.67-1-3.42-1-5.17V719.4zM476.52 719.4h69.45v82.88h-69.45zM375.89 719.4h69.37v82.88h-69.37zM275.25 719.4h69.37v82.88h-69.37zM184.28 781.02c0 11.76 9.51 21.26 21.18 21.26h38.52V719.4h-59.7v61.62z" fill="#B6EAFF" p-id="2889"></path><path d="M821.21 260.66c-0.75 2.67-0.58 2.92-0.33 2.25 0 0.25-0.08 0.58-0.08 0.83-0.5 2.58-1.08 5.17-1.75 7.75-1.42 5.67-3.25 11.17-5.34 16.59-0.08 0.33-0.25 0.58-0.42 0.92 0.08 0.08 0 0.17-0.08 0.25 0 0.08 0 0.17-0.08 0.25 0 0.17-0.08 0.42-0.25 0.58l-0.08 0.08c-0.5 1.17-1.17 2.75-1.33 3.17-1.42 3.09-2.83 6.17-4.42 9.09-4.42 8.59-9.42 16.76-14.76 24.76-25.01-28.68-54.28-53.53-86.88-73.46 6.09-4 12.17-7.75 18.51-11.26 5.34-3 10.76-5.84 16.34-8.42 1.33-0.58 2.67-1.17 3.92-1.75 0.25-0.17 0.67-0.33 1.08-0.5 2.84-1.08 5.67-2.17 8.5-3.17 4.75-1.67 9.51-3.17 14.42-4.34 2.25-0.58 4.5-1.08 6.84-1.5 1.25-0.25 2.5-0.5 3.75-0.67 4.17-0.42 8.34-0.67 12.51-0.58 1.42 0.08 2.75 0.17 4.17 0.25 0.83 0.67 2.42 0.58 2.84 0.42 0.17 0.08 0.42 0.08 0.5 0.08 1.83 0.42 3.59 0.83 5.42 1.42 0.33 0.08 0.67 0.25 1 0.33 1.42 1.17 2.25 1.42 2.25 1.08 0.5 0.25 1 0.42 1.42 0.67 0.5 0.25 1.08 0.75 1.58 1.08 0.08 0.25 0.83 0.83 2.25 1.5 0.25 0.25 0.5 0.42 0.67 0.58 0.92 0.92 1.75 1.83 2.58 2.84 0.17 0.17 0.33 0.42 0.42 0.58 1 1.58 1.83 3.17 2.75 4.84 0 0.08 0 0.08 0.08 0.25 0.42 1.58 0.92 3.08 1.33 4.67 0.17 0.75 0.67 3.58 0.83 4.42 0.08 1 0.17 2 0.17 3.08 0.17 3.7-0.08 7.37-0.33 11.04zM310.44 260.07c-35.69 23.43-67.12 52.7-92.8 86.63-6-8.67-11.76-17.51-16.76-26.76-3.08-5.59-5.92-11.42-8.5-17.26-0.17-0.33-0.25-0.58-0.42-0.92 0-0.17-0.08-0.33-0.17-0.5-0.33-0.92-0.67-1.84-1.08-2.75-1.08-2.92-2.08-5.92-3.08-8.84-1.58-5.09-2.92-10.17-3.92-15.34-0.42-2-0.5-8.84-0.58-2.42 0-2.5-0.5-5.09-0.67-7.59-0.17-3.67-0.08-7.25 0.17-10.92 0.5-0.83 0.42-2.75 0.25-2.83l0.08-0.08c0.33-2.08 0.83-4.17 1.5-6.17 0.08-0.42 0.42-1.17 0.75-1.84 0.25 0 0.83-0.92 0.83-2.42 0.17-0.25 0.33-0.58 0.42-0.83 0.67-1.25 1.5-2.42 2.25-3.58 1.33-1.08 1.75-1.92 1.5-2 0.08 0 0.17-0.17 0.17-0.17 1.08-1.17 2.25-2.25 3.42-3.34h0.08l0.17-0.17c1.67-1 3.34-2.08 5-2.92 0.42-0.25 0.92-0.42 1.33-0.67h0.08c3.17-1 6.34-1.83 9.59-2.58 2.42 0.5 3.17-0.17 2-0.25 0.08 0 0.25 0 0.33-0.08 2.58-0.17 5.17-0.25 7.75-0.17 2.08 0 4.17 0.08 6.25 0.25 0.92 0.08 1.92 0.25 2.84 0.33 5.34 0.83 10.51 1.92 15.68 3.42 6.5 1.75 12.76 4.09 19.01 6.5l0.08 0.08c0.25 0.08 0.42 0.17 0.67 0.25 0.17 0.08 0.33 0.17 0.5 0.25 0.08 0.08 0.17 0.08 0.25 0.08 0.08 0.08 0.08 0.08 0.17 0.08 1.58 0.75 3.08 1.42 4.67 2.17 3.42 1.58 6.75 3.25 10.01 5 10.41 5.52 20.42 11.77 30.18 18.36z" fill="#F995B2" p-id="2890"></path><path d="M798.28 222.22c-0.42 0.17-2 0.25-2.84-0.42h0.17c0.75 0.25 1.92 0.33 2.67 0.42zM821.21 260.66c0 0.25-0.08 0.5-0.08 0.83-0.08 0.5-0.17 0.92-0.25 1.42-0.25 0.66-0.42 0.41 0.33-2.25zM807.45 225.14c0 0.33-0.83 0.08-2.25-1.08 0.08 0.08 0.25 0.08 0.33 0.17 0.67 0.32 1.26 0.66 1.92 0.91zM812.71 228.39c-1.42-0.67-2.17-1.25-2.25-1.5 0.67 0.5 1.33 0.92 2 1.25l0.25 0.25zM186.04 240.06c0 1.5-0.58 2.42-0.83 2.42 0.33-0.83 0.67-1.67 0.75-2.33 0.08-0.01 0.08-0.01 0.08-0.09zM182.62 253.4v-0.67c0.17-0.83 0.25-1.84 0.25-2.17 0.16 0.09 0.25 2.01-0.25 2.84zM210.05 223.8c0.08 0 0.17 0 0.33-0.08 0.5 0 1.08-0.08 1.67-0.17 1.17 0.09 0.42 0.75-2 0.25zM190.2 233.64c0.25 0.08-0.17 0.92-1.5 2 0.08-0.17 0.17-0.25 0.25-0.42 0.42-0.58 0.84-1.08 1.25-1.58z" fill="#582C77" p-id="2891"></path><path d="M608.73 419.1v36.73c0 4.01 1.74 8.22 4.58 11.05 2.71 2.71 7.16 4.75 11.05 4.58 8.47-0.38 15.63-6.87 15.63-15.63V419.1c0-4.01-1.74-8.22-4.58-11.05-2.71-2.71-7.16-4.75-11.05-4.58-8.47 0.38-15.63 6.87-15.63 15.63z" fill="#582C77" p-id="2892"></path><path d="M386.26 419.1v36.73c0 4.01 1.74 8.22 4.58 11.05 2.71 2.71 7.16 4.75 11.05 4.58 8.47-0.38 15.63-6.87 15.63-15.63V419.1c0-4.01-1.74-8.22-4.58-11.05-2.71-2.71-7.16-4.75-11.05-4.58-8.47 0.38-15.63 6.87-15.63 15.63z" fill="#582C77" p-id="2893"></path></svg>