<?xml version="1.0" standalone="no"?><!DOCTYPE svg PUBLIC "-//W3C//DTD SVG 1.1//EN" "http://www.w3.org/Graphics/SVG/1.1/DTD/svg11.dtd"><svg t="1618410092423" class="icon" viewBox="0 0 1024 1024" version="1.1" xmlns="http://www.w3.org/2000/svg" p-id="11521" width="32" height="32" xmlns:xlink="http://www.w3.org/1999/xlink"><defs><style type="text/css"></style></defs><path d="M152.5248 257.4848L301.2608 193.024V117.9136L501.76 70.144l203.776 47.7696v74.8032l150.2208 67.072v156.5184C790.8352 757.7088 501.0944 588.8 501.0944 588.8S232.96 770.6624 149.0432 416.3584c0 0-1.024-132.3008 3.4816-158.8736z m767.8464-27.648l-3.3792-17.4592L773.888 148.48V63.7952L501.6576 0 232.96 63.8976v84.2752L93.4912 208.5888l-4.096 16.2816C88.064 229.7344 59.2896 346.5728 93.9008 502.272A717.568 717.568 0 0 0 206.4896 757.76c67.584 97.1264 160.9216 182.4256 277.4016 253.44l17.2032 10.5472 17.5104-9.984c113.1008-64.512 204.6976-145.5616 272.2304-241.0496a739.9424 739.9424 0 0 0 115.3536-255.3344c38.0416-157.8496 15.2064-280.3712 14.1824-285.4912z" fill="#600082" p-id="11522"></path><path d="M502.528 0l-1.4336 1021.6448C1032.96 729.1904 916.992 212.4288 916.992 212.4288L773.888 148.48V63.7952L502.528 0z" fill="#000000" fill-opacity=".15" p-id="11523"></path><path d="M433.8176 433.6128h-46.5408L374.3744 460.8h-37.6832l77.1072-145.6128h32.2048L472.8832 460.8h-35.584l-3.4816-27.1872z m-33.7408-27.136h30.208l-6.4-50.176-23.808 50.176z m127.4368 4.9152L518.912 460.8h-34.2016l25.1904-145.6128 52.2752 0.1024c16.2304 0 28.9792 4.5056 38.2464 13.5168 9.3184 9.0112 13.4144 20.6848 12.288 34.9696a47.616 47.616 0 0 1-9.4208 25.5488c-5.4784 7.168-12.6976 12.6976-21.7088 16.4864-8.9088 3.7888-18.944 5.6832-30.1056 5.6832l-23.9616-0.1024z m4.7104-27.136l20.5824 0.256a25.4976 25.4976 0 0 0 19.9168-8.3968 25.2928 25.2928 0 0 0 5.4784-20.1216 15.0016 15.0016 0 0 0-4.7104-9.5744 15.616 15.616 0 0 0-10.0864-4.0448l-23.9104-0.0512-7.2704 41.984zM651.6224 460.8h-34.2016l25.2928-145.6128h34.0992L651.6224 460.8z" fill="#3F6797" fill-opacity=".99" p-id="11524"></path></svg>