<?xml version="1.0" standalone="no"?><!DOCTYPE svg PUBLIC "-//W3C//DTD SVG 1.1//EN" "http://www.w3.org/Graphics/SVG/1.1/DTD/svg11.dtd"><svg t="1621262107085" class="icon" viewBox="0 0 4454 1024" version="1.1" xmlns="http://www.w3.org/2000/svg" p-id="3167" width="278.375" height="64" xmlns:xlink="http://www.w3.org/1999/xlink"><defs><style type="text/css"></style></defs><path d="M1183.8976 585.0624c3.6864-18.688-10.752-32.768-43.3152-42.0864l-30.208-7.68c-49.2544-13.0048-85.4016-31.232-108.3392-54.784a108.544 108.544 0 0 1-32.3072-83.712c1.4336-44.2368 20.992-80.0768 58.624-107.52 37.9904-27.8016 84.1728-41.4208 138.5472-40.8064 54.1696 0.512 97.8944 14.2848 131.328 41.216 33.7408 26.88 50.8928 63.1808 51.456 108.8l-139.4176-0.4608c1.1264-36.2496-14.848-54.3744-48.0256-54.3744-14.1312 0-27.3408 4.2496-39.5264 12.7488a48.0256 48.0256 0 0 0-21.6576 33.1264c-4.8128 22.9888 15.4624 38.7072 60.7744 47.2064 39.424 9.3184 69.8368 20.224 91.392 32.7168 21.504 12.1856 37.9392 27.3408 49.2544 45.4656 11.3664 18.1248 16.5888 39.936 15.7696 65.4336a122.88 122.88 0 0 1-27.2384 74.3936c-17.2544 21.8112-42.3424 39.2704-75.2128 52.2752a267.264 267.264 0 0 1-106.24 18.2784 217.4976 217.4976 0 0 1-92.672-20.8384c-28.3136-13.568-50.5856-32-66.7136-55.2448-15.872-23.552-24.064-50.432-24.6272-80.7424l130.048 0.8704c0.512 40.7552 20.992 60.928 61.184 60.3136 17.3056 0 32-3.7888 44.1856-11.4688 12.1856-7.936 19.8656-18.944 22.9376-33.1264z m462.0288 81.6128c-34.304 40.448-75.6736 60.16-124.1088 59.0336-45.056-0.512-79.0528-16.2816-101.9904-47.1552-22.6816-30.8736-31.488-72.2432-26.368-124.1088l49.7152-297.472h139.8272l-50.5856 299.1616c-0.8192 8.192-0.8192 15.7184 0 22.528 1.9968 23.2448 15.7184 35.328 41.216 36.1472 29.4912 1.1264 54.5792-10.496 75.264-34.816l56.9344-323.072h140.6976L1766.6048 716.8h-130.048l9.3696-50.176z m527.872-280.064a400.0256 400.0256 0 0 0-43.4176-4.3008c-41.9328-1.1264-73.9328 13.312-96.0512 43.3664L1982.5152 716.8H1842.688l79.872-459.8272L2053.12 256.512 2042.368 316.928c30.0544-46.4896 65.4336-69.6832 106.24-69.6832 11.6224 0 26.112 1.9456 43.3664 5.9392l-18.2784 133.4272z m212.8896 338.688c-41.1136-0.256-77.824-9.9328-110.08-28.8768a185.344 185.344 0 0 1-72.704-79.9232c-16.384-34.304-22.9376-71.9872-19.5072-113.0496l1.2288-11.8784c7.68-75.6736 33.8944-135.4752 78.6432-179.3536 45.056-44.2368 100.1472-65.4848 165.376-63.744 39.3216 0.512 73.0624 10.5984 101.12 30.1568 28.0576 19.2512 48.5888 46.08 61.5936 80.3328 13.056 33.9968 17.3056 72.192 12.8 114.7392l-8.0896 58.2144h-273.7152c0.5632 24.064 7.3728 43.6224 20.3776 58.6752 13.056 15.0016 32.0512 22.9376 56.9856 23.7568 40.4992 1.1776 76.9024-14.4384 109.2096-46.7456l58.624 77.824c-17.2544 24.576-41.472 44.032-72.6528 58.2144a254.6688 254.6688 0 0 1-101.5808 21.6576h-7.68z m33.9968-366.7968a72.448 72.448 0 0 0-51.8656 18.7392c-14.4384 13.0048-27.0336 34.816-37.8368 65.4336h139.8272l2.56-12.288c1.6896-9.9328 1.9968-19.3024 0.8704-28.1088-4.8128-28.3136-22.6816-42.9056-53.5552-43.776z m408.832-101.9904l-9.728 55.296c36.8128-43.6736 81.152-64.9216 132.9664-63.7952 42.496 0.8704 74.0864 16.7424 94.8224 47.616 20.9408 30.6176 28.5696 74.496 22.9376 131.7376L3022.0288 716.8h-140.2368l48.896-290.304a149.504 149.504 0 0 0 0.8192-27.136c-1.9456-26.9312-17.8176-40.448-47.616-40.448-24.576-0.512-47.104 10.3936-67.584 32.768L2759.0144 716.8h-139.776l79.872-459.8272 130.4576-0.4608z m501.504 468.7872c-41.0624-0.256-77.7728-9.9328-110.08-28.8768a185.3952 185.3952 0 0 1-72.704-79.9232c-16.384-34.304-22.8864-71.9872-19.5072-113.0496l1.28-11.8784c7.68-75.6736 33.8432-135.4752 78.592-179.3536 45.056-44.2368 100.1984-65.4848 165.376-63.744 39.3728 0.512 73.0624 10.5984 101.12 30.1568 28.0576 19.2512 48.64 46.08 61.6448 80.3328 13.0048 33.9968 17.2544 72.192 12.7488 114.7392l-8.0896 58.2144h-273.7152c0.5632 24.064 7.3728 43.6224 20.4288 58.6752 13.0048 15.0016 32 22.9376 56.9344 23.7568 40.4992 1.1776 76.9024-14.4384 109.2096-46.7456l58.6752 77.824c-17.3056 24.576-41.472 44.032-72.704 58.2144a254.72 254.72 0 0 1-101.5296 21.6576h-7.68z m33.9968-366.7968a72.448 72.448 0 0 0-51.8656 18.7392c-14.4384 13.0048-27.0336 34.816-37.7856 65.4336h139.776l2.56-12.288c1.7408-9.9328 2.048-19.3024 0.8704-28.1088-4.8128-28.3136-22.6816-42.9056-53.5552-43.776z m460.6976 226.56c3.6864-18.688-10.752-32.768-43.3664-42.0864l-30.1568-7.68c-49.3056-13.0048-85.4016-31.232-108.3904-54.784a108.544 108.544 0 0 1-32.256-83.712c1.3824-44.2368 20.992-80.0768 58.624-107.52 37.9904-27.8016 84.1728-41.4208 138.5472-40.8064 54.1184 0.512 97.8944 14.2848 131.328 41.216 33.7408 26.88 50.8416 63.1808 51.456 108.8l-139.4176-0.4608c1.1264-36.2496-14.848-54.3744-48.0256-54.3744-14.1824 0-27.3408 4.2496-39.5264 12.7488a47.9744 47.9744 0 0 0-21.6576 33.1264c-4.8128 22.9888 15.4112 38.7072 60.7744 47.2064 39.3728 9.3184 69.8368 20.224 91.3408 32.7168 21.504 12.1856 37.9904 27.3408 49.3056 45.4656 11.3152 18.1248 16.5888 39.936 15.7184 65.4336a122.88 122.88 0 0 1-27.1872 74.3936c-17.3056 21.8112-42.3424 39.2704-75.264 52.2752a267.264 267.264 0 0 1-106.1888 18.2784 217.4976 217.4976 0 0 1-92.672-20.8384c-28.3136-13.568-50.5856-32-66.7136-55.2448-15.872-23.552-24.064-50.432-24.6784-80.7424l130.048 0.8704c0.5632 40.7552 20.992 60.928 61.2352 60.3136 17.2544 0 32-3.7888 44.1856-11.4688 12.1856-7.936 19.8144-18.944 22.9376-33.1264z m436.8896 0c3.6864-18.688-10.752-32.768-43.3152-42.0864l-30.208-7.68c-49.2544-13.0048-85.4016-31.232-108.3392-54.784a108.544 108.544 0 0 1-32.3072-83.712c1.4336-44.2368 20.992-80.0768 58.624-107.52 37.9904-27.8016 84.1728-41.4208 138.5472-40.8064 54.1184 0.512 97.8944 14.2848 131.328 41.216 33.7408 26.88 50.8928 63.1808 51.456 108.8l-139.4176-0.4608c1.1264-36.2496-14.848-54.3744-48.0256-54.3744-14.1824 0-27.3408 4.2496-39.5264 12.7488a47.9744 47.9744 0 0 0-21.6576 33.1264c-4.8128 22.9888 15.4112 38.7072 60.7744 47.2064 39.3728 9.3184 69.8368 20.224 91.3408 32.7168 21.5552 12.1856 37.9904 27.3408 49.3056 45.4656 11.3664 18.1248 16.5888 39.936 15.7184 65.4336a122.88 122.88 0 0 1-27.136 74.3936c-17.3056 21.8112-42.3936 39.2704-75.264 52.2752a267.264 267.264 0 0 1-106.24 18.2784 217.4976 217.4976 0 0 1-92.672-20.8384c-28.3136-13.568-50.5856-32-66.7136-55.2448-15.872-23.552-24.064-50.432-24.6272-80.7424l130.048 0.8704c0.512 40.7552 20.992 60.928 61.184 60.3136 17.2544 0 32-3.7888 44.1856-11.4688 12.1856-7.936 19.8656-18.944 22.9376-33.1264z" fill="#444513" fill-opacity=".99" p-id="3168"></path><path d="M75.7248 257.4848L224.4608 193.024V117.9136L424.96 70.144l203.776 47.7696v74.8032l150.2208 67.072v156.5184C714.0352 757.7088 424.2944 588.8 424.2944 588.8S156.16 770.6624 72.2432 416.3584c0 0-1.024-132.3008 3.4816-158.8736z m767.8464-27.648l-3.3792-17.4592L697.088 148.48V63.7952L424.8576 0 156.16 63.8976v84.2752L16.6912 208.5888l-4.096 16.2816C11.264 229.7344-17.5104 346.5728 17.1008 502.272A717.568 717.568 0 0 0 129.6896 757.76c67.584 97.1264 160.9216 182.4256 277.4016 253.44l17.2032 10.5472 17.5104-9.984c113.1008-64.512 204.6976-145.5616 272.2304-241.0496a739.9424 739.9424 0 0 0 115.3536-255.3344c38.0416-157.8496 15.2064-280.3712 14.1824-285.4912z" fill="#8D0505" p-id="3169"></path><path d="M425.728 0l-1.4336 1021.6448C956.16 729.1904 840.192 212.4288 840.192 212.4288L697.088 148.48V63.7952L425.728 0z" fill="#000000" fill-opacity=".15" p-id="3170"></path><path d="M357.0176 433.6128h-46.5408L297.5744 460.8h-37.6832l77.1072-145.6128h32.2048L396.0832 460.8h-35.584l-3.4816-27.1872z m-33.7408-27.136h30.208l-6.4-50.176-23.808 50.176z m127.4368 4.9152L442.112 460.8h-34.2016l25.1904-145.6128 52.2752 0.1024c16.2304 0 28.9792 4.5056 38.2464 13.5168 9.3184 9.0112 13.4144 20.6848 12.288 34.9696a47.616 47.616 0 0 1-9.4208 25.5488c-5.4784 7.168-12.6976 12.6976-21.7088 16.4864-8.9088 3.7888-18.944 5.6832-30.1056 5.6832l-23.9616-0.1024z m4.7104-27.136l20.5824 0.256a25.4976 25.4976 0 0 0 19.9168-8.3968 25.2928 25.2928 0 0 0 5.4784-20.1216 15.0016 15.0016 0 0 0-4.7104-9.5744 15.616 15.616 0 0 0-10.0864-4.0448l-23.9104-0.0512-7.2704 41.984zM574.8224 460.8h-34.2016l25.2928-145.6128h34.0992L574.8224 460.8z" fill="#0062D6" fill-opacity=".99" p-id="3171"></path></svg>